# xmcd CD database file generated by Grip 3.2.0
# 
# Track frame offsets:
#       150
#       4213
#       19599
#       35609
#       51646
#       69487
#       87497
#       109569
#       130264
#       148967
#       165553
#       181695
#       203725
# 
# Disc length: 2982 seconds
# 
# Revision: 3
# Processed by: cddbd v1.5.2PL0 Copyright (c) Steve Scherf et al.
# Submitted via: Grip 3.2.0
# 
DISCID=b30ba40d
DTITLE=三浦大知 - D-Rock With U
DYEAR=2006
DGENRE=Pop
TTITLE0=I'm Back -The Theme Of D-Rock With U-
TTITLE1=I-N-G
TTITLE2=No Limit
TTITLE3=Make It Happen
TTITLE4=Southern Cross
TTITLE5=Keep It Goin' On
TTITLE6=Open Your Heart
TTITLE7=Knock Knock Knock
TTITLE8=Word！
TTITLE9=Free Style
TTITLE10=Stay
TTITLE11=Bad Day
TTITLE12=17 Ways
EXTD=YEAR: 2006
EXTT0=
EXTT1=
EXTT2=
EXTT3=
EXTT4=
EXTT5=
EXTT6=
EXTT7=
EXTT8=
EXTT9=
EXTT10=
EXTT11=
EXTT12=
PLAYORDER=
